<svg width="61" height="27" viewBox="0 0 61 27" fill="none" xmlns="http://www.w3.org/2000/svg">
<path fill-rule="evenodd" clip-rule="evenodd" d="M12.1525 4.18415L15.7913 12.891C15.9381 13.1923 16.0849 13.5168 16.2239 13.8644C16.8961 15.4946 17.715 17.4569 18.5339 19.4115C19.2215 21.0571 19.9168 22.7181 20.6894 24.5954L21.4388 26.3955H21.4233L21.462 26.4959H16.8884L16.6489 25.9088C16.1544 24.719 15.4282 22.973 14.6943 21.2116C13.9526 19.4269 13.2032 17.6269 12.3147 15.4714C12.1525 15.0697 11.5885 13.8413 11.3259 13.5245C11.1868 13.3545 10.9705 13.2387 10.7233 13.2387C10.4606 13.2387 10.2211 13.37 10.082 13.5786C9.7421 14.073 9.30172 15.0619 9.0545 15.6645L8.66821 16.6071C8.25875 17.6114 7.84156 18.6312 7.53254 19.3652C7.00719 20.6167 6.5591 21.6983 6.15736 22.664L4.56589 26.55L0 26.5346L0.525341 25.2444C0.888449 24.3559 1.46788 22.9344 2.24818 21.0571C2.78898 19.7437 3.28342 18.5539 3.62335 17.735C4.16415 16.4526 5.2612 13.9571 5.74019 12.8756C6.53594 11.0677 7.9111 9.53034 9.71119 9.14405L8.59098 6.46324L8.26649 5.77564C7.99609 5.28119 7.27759 4.88719 6.52047 4.88719L5.5934 4.87948V0.638058L6.51276 0.614882C9.25538 0.537625 11.1868 1.71965 12.1525 4.18415Z" fill="white"/>
<path fill-rule="evenodd" clip-rule="evenodd" d="M30.2745 22.0222C30.1354 22.2231 29.8959 22.3621 29.6332 22.3621C29.3937 22.3621 29.1774 22.254 29.0306 22.0763C28.768 21.7595 28.204 20.5312 28.0417 20.1294C27.1533 17.9662 26.4039 16.1739 25.6622 14.3892C24.9283 12.6201 24.2021 10.8818 23.7076 9.692L23.4681 9.10484H18.8945L19.4276 10.4028C20.3006 12.5351 21.0654 14.366 21.8303 16.1893C22.6492 18.1516 23.4681 20.114 24.1403 21.7364C24.4338 22.4394 24.7274 23.0574 25.0442 23.5905C26.1258 25.3906 27.555 26.534 29.7491 26.5495C31.9896 26.5649 33.6969 24.8266 34.624 22.7252C35.103 21.6436 36.2001 19.1483 36.7409 17.8658C37.0731 17.0701 37.5521 15.9112 38.0851 14.6287C38.6105 15.9035 39.0895 17.0623 39.4294 17.8658C39.9702 19.1483 41.0672 21.6436 41.5462 22.7252C42.4733 24.8266 44.1807 26.5649 46.4212 26.5495C48.6153 26.534 50.0368 25.3906 51.1261 23.5905C51.4429 23.0574 51.7442 22.4471 52.03 21.7364C52.7021 20.1062 53.5211 18.1439 54.34 16.1893C55.1048 14.366 55.8697 12.5351 56.7427 10.4028L57.2758 9.10484H52.7021L52.4626 9.692C51.9682 10.8818 51.242 12.6278 50.508 14.3892C49.7664 16.1739 49.017 17.974 48.1285 20.1294C47.9663 20.5312 47.4023 21.7595 47.1397 22.0763C47.0006 22.2462 46.7843 22.3621 46.5371 22.3621C46.2744 22.3621 46.0349 22.2308 45.8958 22.0222C45.6949 21.7363 45.3318 20.9406 45.1541 20.5698C45.0537 20.3535 44.9533 20.1371 44.8683 19.9363L44.482 18.9937C44.0726 17.9894 43.6554 16.9696 43.3463 16.2357C42.821 14.9841 42.3729 13.9025 41.9712 12.9368L40.3797 9.05078L38.0929 9.05849L35.8061 9.05078L34.2146 12.9368C33.8206 13.9025 33.3647 14.9841 32.8394 16.2357C32.5304 16.9619 32.1132 17.9817 31.7037 18.9937L31.3174 19.9363C31.2324 20.1449 31.1397 20.3612 31.0316 20.5698C30.8384 20.9406 30.4753 21.7363 30.2745 22.0222Z" fill="white"/>
<path fill-rule="evenodd" clip-rule="evenodd" d="M74.0587 24.5175V9.1202H71.8105V26.588H85.0601V24.5175H74.0587ZM99.9321 24.8883C99.1827 24.8652 98.8118 24.5407 98.8118 23.66V18.5378C98.8118 15.4553 96.3705 13.856 92.948 13.856C89.5333 13.856 87.4551 15.5557 87.1306 18.0434H89.3479C89.6724 16.5291 90.7926 15.6561 92.9403 15.6561C95.3121 15.6561 96.5868 16.6991 96.5868 18.5146V19.0632L91.0012 19.4804C88.3822 19.6812 86.5589 20.8555 86.5589 23.2041C86.5589 25.6995 88.6294 26.8275 91.4956 26.8275C94.0374 26.8275 95.8143 26.0008 96.8109 24.7338C97.1122 26.1322 98.0084 26.5803 99.2599 26.5803H100.334V24.8806H99.9321V24.8883ZM96.5946 21.5586C96.5946 24.193 93.9987 25.0892 91.7274 25.0892C90.0818 25.0892 88.7607 24.5638 88.7607 23.1423C88.7607 21.8367 89.8809 21.1877 91.6038 21.0409L96.5946 20.6701V21.5586ZM101.956 26.588H104.15V19.2254C104.15 16.8072 105.896 15.8106 107.496 15.8106C109.141 15.8106 110.539 16.8304 110.539 19.0786V26.588H112.757V19.3027C112.757 17.0545 114.178 15.8106 116.102 15.8106C117.747 15.8106 119.146 16.7377 119.146 18.9009V26.588H121.34V18.476C121.34 15.3316 119.416 13.8638 116.65 13.8638C114.279 13.8638 113.004 15.0149 112.309 16.1351H112.131C111.66 15.1153 110.509 13.8638 108.191 13.8638C106.298 13.8638 105.07 14.7136 104.32 15.687H104.143L103.942 14.1187H101.948V26.588H101.956ZM131.376 13.856C128.703 13.856 127.134 15.0303 126.385 15.9497V8.86523H124.191V26.5803H126.014L126.238 24.6875H126.416C127.165 25.6609 128.664 26.8352 131.383 26.8352C135.447 26.8352 138.221 24.2626 138.221 20.3224C138.213 16.3283 135.339 13.856 131.376 13.856ZM131.128 24.8652C128.208 24.8652 126.385 23.096 126.385 20.3224C126.385 17.603 128.185 15.8338 131.128 15.8338C134.072 15.8338 135.996 17.6339 135.996 20.3224C135.988 23.0651 134.072 24.8652 131.128 24.8652ZM151.71 8.87297V15.9574C150.96 15.0304 149.392 13.8638 146.719 13.8638C142.748 13.8638 139.882 16.336 139.882 20.3224C139.882 24.2626 142.647 26.8352 146.719 26.8352C149.438 26.8352 150.937 25.6609 151.686 24.6875H151.864L152.088 26.5803H153.911V8.86523H151.71V8.87297ZM146.966 24.8652C144.023 24.8652 142.099 23.0651 142.099 20.3224C142.099 17.6262 144.023 15.8338 146.966 15.8338C149.91 15.8338 151.71 17.603 151.71 20.3224C151.71 23.0882 149.886 24.8652 146.966 24.8652ZM169.602 24.8883C168.853 24.8652 168.482 24.5407 168.482 23.66V18.5378C168.482 15.4553 166.041 13.856 162.618 13.856C159.204 13.856 157.125 15.5557 156.801 18.0434H159.018C159.343 16.5291 160.463 15.6561 162.611 15.6561C164.982 15.6561 166.257 16.6991 166.257 18.5146V19.0632L160.671 19.4804C158.052 19.6812 156.229 20.8555 156.229 23.2041C156.229 25.6995 158.3 26.8275 161.166 26.8275C163.708 26.8275 165.485 26.0008 166.481 24.7338C166.782 26.1322 167.679 26.5803 168.93 26.5803H170.004V24.8806H169.602V24.8883ZM166.257 21.5586C166.257 24.193 163.661 25.0892 161.39 25.0892C159.744 25.0892 158.423 24.5638 158.423 23.1423C158.423 21.8367 159.543 21.1877 161.266 21.0409L166.257 20.6701V21.5586ZM191.134 9.1202H193.382L188.839 26.588H186.166L181.701 13.2612H181.523L177.058 26.588H174.415L169.85 9.1202H172.144L175.814 23.3664H175.961L180.349 10.364H182.891L187.232 23.3664H187.41L191.134 9.1202ZM201.115 26.8352C205.48 26.8352 208.455 24.0926 208.455 20.3456C208.455 16.6064 205.488 13.856 201.115 13.856C196.727 13.856 193.784 16.5987 193.784 20.3456C193.776 24.0617 196.72 26.8352 201.115 26.8352ZM201.115 24.8652C197.871 24.8652 196.001 22.8178 196.001 20.3456C196.001 17.8734 197.871 15.8261 201.115 15.8261C204.337 15.8261 206.253 17.8734 206.253 20.3456C206.253 22.8178 204.329 24.8652 201.115 24.8652ZM210.718 26.588H212.913V20.1988C212.913 17.5026 214.612 16.0347 216.783 16.0347C217.231 16.0347 217.633 16.0347 218.081 16.1119V13.8638H217.185C214.937 13.8638 213.894 14.7368 213.09 15.8879H212.913L212.689 14.1187H210.718V26.588ZM232.204 14.111H229.16L221.975 19.5499H221.797V8.87297H219.603V26.588H221.797V22.1998L224.393 20.1757L229.585 26.588H232.204L226.038 18.9009L232.204 14.111ZM238.662 26.8352C241.606 26.8352 244.001 25.8154 244.001 23.2659C244.001 21.2186 242.556 20.0752 240.007 19.5731L238.013 19.2254C236.592 18.9009 235.34 18.5996 235.34 17.3558C235.34 16.1119 236.584 15.5866 238.261 15.5866C240.254 15.5866 241.258 16.3592 241.505 17.4562H243.723C243.444 15.5093 241.776 13.8638 238.23 13.8638C235.309 13.8638 233.138 15.1617 233.138 17.4562C233.138 19.7276 235.108 20.4538 236.978 20.8478L238.971 21.1723C240.818 21.5431 241.814 22.1689 241.814 23.2968C241.814 24.6952 240.393 25.1201 238.647 25.1201C236.576 25.1201 235.132 24.5175 234.83 22.7715H232.636C232.876 25.3132 234.923 26.8352 238.662 26.8352Z" fill="white"/>
</svg>
